<svg width="1350" height="1295" viewBox="0 0 1350 1295" fill="none" xmlns="http://www.w3.org/2000/svg">
<path d="M703.944 35.0059C711.044 35.0761 726.537 39.9744 731.646 39.1837C734.468 40.8267 735.467 41.5145 738.569 42.4395L745.253 44.8907C757.829 50.6797 765.424 54.4655 776.329 64.5255C812.274 97.6795 819.252 154.348 790.967 198.241C825.6 239.159 852.079 289.022 853.406 350.631C854.118 397.149 840.031 442.128 814.256 475.668C803.543 489.698 790.999 502.569 778.447 513.899C802.711 533.889 815.632 542.859 836.546 569.009L830.413 572.648C807.772 591.788 800.985 610.869 795.564 644.408C791.279 670.938 791.367 696.698 792.454 723.578C792.902 734.688 794.565 750.159 794.629 760.599C790.272 760.849 786.194 761.199 781.829 760.939C780.334 747.879 779.511 734.649 777.976 721.759C775.457 700.619 771.196 679.939 766.104 659.809C756.302 621.049 735.955 571.439 696.908 579.219C682.43 582.099 669.391 591.789 660.948 607.299C653.177 622.299 652.138 645.699 650.795 662.898C650.619 665.178 649.603 665.979 648.388 667.179C653.185 675.699 654.232 686.789 655.415 697.089C659.468 732.559 672.156 761.819 685.212 792.778L684.732 794.229L682.43 793.248C681.95 795.858 653.561 824.009 648.508 830.429C634.539 848.199 626.582 866.278 620.264 890.368C618.179 898.318 618.99 921.169 615.687 925.969L617.231 927.339C625.157 988.549 633.846 1006.26 680.359 1034.43C668.863 1050.66 660.548 1062.34 650.131 1079.85C632.652 1071.22 623.642 1066.51 604.975 1061.5C403.862 1016.34 307.96 904.961 268.371 779.732C273.935 768.003 279.931 756.738 286.268 746.198C293.487 734.188 302.031 723.488 309.255 711.498L309.758 710.648C295.486 700.158 288 682.238 289.219 661.528C291.982 614.518 320.163 578.708 347.567 550.118C354.223 543.168 361.277 537.659 367.877 530.339L377.766 522.738C368.038 512.948 358.986 505.818 348.917 494.998C329.092 470.648 313.94 446.008 305.82 412.418C294.868 366.946 298.71 317.933 316.462 276.018L317.318 274.027C327.118 249.348 341.776 227.539 357.771 208.824C346.847 192.181 338.797 175.698 338.286 153.783C336.563 79.9014 395.495 46.4281 444.978 42.9981C465.841 42.4912 486.509 48.1226 505.313 59.4395C529.057 73.8565 541.532 92.1899 549.937 122.885C565.355 121.346 580.85 121.845 596.295 122.214C608.369 60.548 656.847 34.5479 703.944 35.0059Z" fill="#C5CAB4"/>
<path d="M472.74 640.879C484.853 620.019 500.868 598.489 518.776 584.929C546.012 564.299 566.394 604.869 576.342 630.959C580.567 642.039 583.104 655.249 587.494 666.569L587.845 667.459C592.642 675.979 593.69 687.069 594.873 697.369C627.457 810.559 792.856 1061.9 640.957 1164.56C558.084 1220.57 485.981 1188.56 385.957 1188.56C310.986 1188.56 257.058 1216.31 194.457 1175.06C51.2312 1080.67 163.244 803.29 253.906 705.889C263.014 696.379 274.187 686.279 283.77 677.239C289.891 652.769 308.967 604.059 324.945 587.969C348.855 563.899 389.889 619.809 402.663 642.689C428.726 637.899 446.842 637.749 472.74 640.879Z" fill="#D37C51"/>
<path d="M434.257 871.049C445.887 867.979 454.755 866.979 466.388 869.879C470.304 872.269 471.257 872.459 473.908 876.519C478.29 898.879 445.291 906.569 433.998 893.129C426.694 884.429 424.25 878.439 434.257 871.049Z" fill="#78403C"/>
<path d="M514.827 831.429C519.841 831.759 524.662 832.589 527.255 838.939C528.318 841.519 528.433 844.549 527.572 847.239C526.093 851.879 523.128 853.509 519.751 855.419C504.021 855.239 499.481 838.719 514.827 831.429Z" fill="#78403C"/>
<path d="M377.95 832.659C392.183 834.899 395.599 848.999 381.13 856.449C365.671 855.369 361.881 837.039 377.95 832.659Z" fill="#78403C"/>
<path d="M564.382 363.312C572.896 362.494 581.711 362.974 590.072 362.508C607.764 361.524 617.298 375.568 598.229 388.938C573.651 399.798 538.069 377.669 564.382 363.312Z" fill="#586144"/>
<path d="M630.205 320.33C645.758 319.621 654.416 333.832 638.962 344.452C623.961 346.96 613.731 330.794 630.205 320.33Z" fill="#586144"/>
<path d="M525.618 321.382C540.755 319.058 550.338 334.925 534.848 345.194C519.853 346.487 510.192 332.929 525.618 321.382Z" fill="#586144"/>
<path d="M868.234 571.611C878.026 552.349 898.127 511.375 916.985 506.765C922.595 505.389 928.224 508.323 933.052 512.276C1192.48 724.747 1377.47 1217.86 868.234 1206.75C358.998 1195.63 605.405 734.515 668.297 560.551C683.041 519.788 732.752 573.444 751.465 590.939C768.063 584.176 785.327 579.261 802.748 575.749C810.435 574.196 823.278 574.174 830.016 571.749L833.484 573.092C843.494 571.646 857.732 571.747 868.234 571.611Z" fill="#B2A6CA"/>
<path d="M827.142 739.772C833.342 738.344 845.616 733.765 850.018 741.46C849.93 748.359 845.792 751.769 841.863 756.493C835.254 761.834 827.669 757.134 821.373 750.61C819.649 748.828 819.791 746.557 820.004 744.175C822.054 741.025 823.91 740.882 827.142 739.772Z" fill="#81566D"/>
<path d="M778.722 710.596C792.346 707.281 801.366 719.084 789.435 731.547C776.069 734.75 766.305 723.359 778.722 710.596Z" fill="#81566D"/>
<path d="M872.753 695.604C886.868 694.317 893.78 708.145 880.752 717.764C865.769 719.199 859.703 706.775 872.753 695.604Z" fill="#81566D"/>
<path d="M1334.58 187.942L1349.98 196.851C1343.75 201.154 1341.22 203.181 1335.65 208.959C1334.27 204.366 1334.6 193.287 1334.58 187.942Z" fill="#F9F9F4"/>
</svg>
