<svg width="554" height="778" viewBox="0 0 554 778" fill="none" xmlns="http://www.w3.org/2000/svg">
<path d="M404.251 0.00594014C411.35 0.076185 426.843 4.97435 431.952 4.18367C434.774 5.82667 435.774 6.51454 438.876 7.43953L445.56 9.89071C458.135 15.6797 465.731 19.4655 476.636 29.5255C512.58 62.6795 519.559 119.348 491.273 163.241C525.907 204.159 552.386 254.022 553.713 315.631C554.419 361.779 540.558 406.41 515.173 439.863C509.022 451.128 501.696 461.79 493.271 471.658C491.518 473.716 489.618 475.959 487.646 478.177C484.94 481.489 482.214 484.514 479.485 487.064C518.683 511.731 554.709 566.306 545.565 613.871C537.377 656.466 497.571 671.769 460.223 652.696C461.452 713.142 468.824 763.662 395.395 776.298C387.707 777.465 374.451 777.711 366.886 777.749C341.933 777.857 314.285 774.807 295.968 755.889C279.916 739.314 277.666 720.614 277.712 698.806C274.947 698.7 272.773 698.739 270.016 698.84C269.693 699.371 268.365 717.045 268.02 719.651C260.599 775.699 203.332 781.022 157.877 776.928C129.386 774.37 101.685 762.033 91.4708 733.395C86.0255 718.229 86.9817 705.392 86.9932 689.673C86.9902 677.404 87.0493 665.134 87.1729 652.865C74.5814 658.684 63.3589 662.43 49.1446 660.728C34.7397 658.955 21.633 651.519 12.7217 640.062C1.73913 625.795 -1.73155 605.81 0.77448 588.223C4.93636 559.024 20.8672 529.626 41.5382 508.792C49.7306 500.536 59.1088 493.534 68.2774 486.5C67.0756 485.414 65.9125 484.286 64.7921 483.117C48.6926 466.244 36.134 447.903 27.0128 428.725C17.9751 413.519 10.8574 396.987 6.12702 377.418C-4.82536 331.946 -0.983624 282.933 16.7686 241.018L17.6251 239.027C27.4243 214.348 42.0829 192.539 58.0772 173.824C47.1541 157.181 39.1037 140.698 38.5928 118.783C36.8702 44.9015 95.8013 11.4281 145.284 7.99813C166.148 7.49118 186.816 13.1226 205.62 24.4395C229.364 38.8565 241.838 57.19 250.243 87.8848C265.662 86.3459 281.157 86.845 296.602 87.214C308.676 25.5481 357.154 -0.452059 404.251 0.00594014Z" fill="#C5CAB4"/>
<path d="M321.589 280.793C327.483 278.503 334.129 281.338 336.548 287.178C338.976 293.019 336.289 299.727 330.505 302.284C326.649 303.99 322.163 303.473 318.799 300.932C315.425 298.39 313.701 294.223 314.276 290.043C314.859 285.862 317.649 282.323 321.589 280.793Z" fill="#525C3D"/>
<path d="M224.105 280.897C227.996 279.27 232.462 279.89 235.763 282.516C239.063 285.14 240.673 289.354 239.964 293.511C239.255 297.667 236.34 301.109 232.356 302.491C226.455 304.539 219.994 301.53 217.764 295.694C215.535 289.858 218.343 283.306 224.105 280.897Z" fill="#525C3D"/>
<path d="M300.025 336.495C295.36 354.557 253.182 352.26 252.36 333.624C252.25 331.139 252.118 329.632 252.925 327.279C255.807 318.882 266.946 321.588 275.82 321.727C286.277 321.892 299.689 319.652 300.796 330.056C301.065 332.574 300.659 334.043 300.025 336.495Z" fill="#525C3D"/>
</svg>
